<svg xmlns="http://www.w3.org/2000/svg" width="1100" height="720" viewBox="0 0 1100 720">
  <defs>
    <style>
      .title{font:700 24px Arial;fill:#1f2937}.label{font:600 15px Arial;fill:#111827}.small{font:13px Arial;fill:#374151}.box{fill:#fff;stroke:#374151;stroke-width:2;rx:14}.subnet{fill:#f9fafb;stroke:#9ca3af;stroke-width:2;rx:18}.public{fill:#ecfdf5}.private{fill:#eff6ff}.db{fill:#fff7ed}.arrow{stroke:#111827;stroke-width:2.5;marker-end:url(#arrow)}.dash{stroke-dasharray:6 5}.aws{fill:#fffbeb;stroke:#f59e0b;stroke-width:2;rx:18}.module{fill:#f5f3ff;stroke:#7c3aed;stroke-width:2;rx:12}
    </style>
    <marker id="arrow" viewBox="0 0 10 10" refX="9" refY="5" markerWidth="7" markerHeight="7" orient="auto-start-reverse"><path d="M 0 0 L 10 5 L 0 10 z" fill="#111827"/></marker>
  </defs>
  <text x="50" y="45" class="title">Dockerized To-Do 3-Tier Application on AWS</text>
  <rect x="40" y="75" width="1020" height="575" class="aws"/>
  <text x="65" y="105" class="label">AWS Account 866934333672 / Region us-east-1</text>
  <rect x="80" y="135" width="900" height="430" class="box" fill="#ffffff"/>
  <text x="105" y="165" class="label">VPC: todo-3tier-simple-dev-vpc</text>
  <rect x="120" y="205" width="245" height="250" class="subnet public"/>
  <text x="145" y="235" class="label">Public Subnet</text>
  <rect x="160" y="270" width="165" height="95" class="box"/>
  <text x="180" y="300" class="label">Frontend EC2</text>
  <text x="178" y="325" class="small">Docker + React + Nginx</text>
  <text x="180" y="348" class="small">Public IP :80</text>
  <rect x="435" y="205" width="245" height="250" class="subnet private"/>
  <text x="460" y="235" class="label">Private App Subnet</text>
  <rect x="475" y="270" width="165" height="95" class="box"/>
  <text x="500" y="300" class="label">Backend EC2</text>
  <text x="505" y="325" class="small">Docker + FastAPI</text>
  <text x="525" y="348" class="small">Private :8000</text>
  <rect x="750" y="205" width="190" height="250" class="subnet db"/>
  <text x="775" y="235" class="label">Private DB Subnets</text>
  <rect x="785" y="285" width="120" height="85" class="box"/>
  <text x="810" y="315" class="label">RDS MySQL</text>
  <text x="815" y="340" class="small">Private :3306</text>
  <text x="45" y="690" class="small">No ALB, no ASG, no Route 53, no ACM. Frontend and backend run on separate single EC2 instances. Backend and RDS stay private.</text>
  <rect x="110" y="590" width="180" height="45" class="module"/><text x="135" y="618" class="small">ECR frontend image</text>
  <rect x="320" y="590" width="180" height="45" class="module"/><text x="350" y="618" class="small">ECR backend image</text>
  <path class="arrow" d="M 40 320 L 160 320"/><text x="52" y="300" class="small">Browser HTTP</text>
  <path class="arrow" d="M 325 320 L 475 320"/><text x="365" y="300" class="small">/api proxy</text>
  <path class="arrow" d="M 640 320 L 785 320"/><text x="675" y="300" class="small">MySQL</text>
  <path class="arrow dash" d="M 200 590 L 225 365"/><text x="115" y="575" class="small">Docker pull</text>
  <path class="arrow dash" d="M 410 590 L 555 365"/><text x="385" y="575" class="small">Docker pull</text>
</svg>
